<?xml version="1.0" standalone="no"?>
<!DOCTYPE svg PUBLIC "-//W3C//DTD SVG 20010904//EN"
 "http://www.w3.org/TR/2001/REC-SVG-20010904/DTD/svg10.dtd">
<svg version="1.0" xmlns="http://www.w3.org/2000/svg"
 width="1000.000000pt" height="1000.000000pt" viewBox="0 0 1000.000000 1000.000000"
 preserveAspectRatio="xMidYMid meet">
<metadata>
Created by potrace 1.11, written by Peter Selinger 2001-2013
</metadata>
<g transform="translate(0.000000,1000.000000) scale(0.100000,-0.100000)"
fill="#000000" stroke="none">
<path d="M6413 9577 c-13 -6 -73 -43 -134 -82 -61 -38 -123 -76 -137 -84 -15
-8 -29 -17 -32 -20 -18 -22 -389 -244 -406 -243 -12 1 -59 10 -106 21 -46 11
-97 23 -113 26 -55 11 -72 15 -201 45 -71 17 -140 32 -154 34 -32 5 -76 15
-120 26 -78 20 -91 19 -163 -12 -40 -17 -76 -35 -81 -40 -6 -4 -18 -8 -28 -8
-10 0 -18 -4 -18 -10 0 -5 -6 -10 -13 -10 -8 0 -27 -6 -43 -14 -26 -13 -77
-36 -284 -129 -30 -13 -75 -34 -100 -45 -25 -11 -74 -33 -109 -49 -67 -30 -71
-35 -142 -200 -8 -18 -18 -33 -22 -33 -5 0 -6 -4 -3 -8 9 -16 -33 -66 -226
-264 -106 -110 -231 -239 -277 -286 -83 -87 -96 -107 -106 -162 -3 -16 -9 -40
-15 -54 -5 -15 -7 -26 -4 -26 4 0 2 -6 -3 -12 -6 -7 -14 -31 -18 -53 -9 -45
-12 -54 -15 -57 -1 -2 -3 -10 -5 -18 -10 -39 -15 -57 -24 -88 -5 -18 -10 -33
-9 -35 0 -4 -23 -92 -29 -107 -3 -8 -7 -22 -8 -30 -5 -25 -11 -47 -69 -260
-56 -201 -61 -222 -70 -268 -3 -12 -7 -26 -10 -30 -3 -5 -7 -19 -10 -33 -3
-13 -16 -63 -29 -111 -14 -49 -23 -88 -20 -88 3 0 1 -6 -5 -13 -6 -7 -13 -26
-16 -42 -2 -17 -5 -30 -6 -30 -1 0 -3 -7 -5 -15 -1 -8 -10 -42 -19 -75 -21
-76 -26 -94 -32 -124 -9 -45 -19 -47 -79 -21 -11 5 -90 32 -175 60 -85 28
-162 54 -170 57 -8 4 -18 7 -22 7 -3 1 -18 11 -32 24 -15 12 -29 22 -33 22 -3
0 -30 18 -59 40 -29 22 -57 40 -63 40 -5 0 -11 4 -13 8 -1 4 -44 36 -95 71
-55 37 -147 117 -232 202 -78 76 -144 139 -146 139 -2 0 6 -26 20 -57 13 -32
44 -112 70 -178 25 -66 51 -129 57 -140 16 -29 171 -230 230 -298 15 -18 28
-35 28 -38 0 -15 89 -101 155 -150 39 -29 81 -63 95 -76 14 -13 28 -23 32 -23
4 0 21 -14 38 -30 17 -17 33 -30 36 -30 3 0 12 -6 19 -12 18 -16 23 -20 125
-100 71 -55 131 -90 168 -99 9 -2 16 -4 77 -24 57 -19 71 -22 129 -29 22 -3
53 -8 68 -11 15 -3 62 -7 105 -10 87 -5 176 -15 182 -21 2 -2 -18 -4 -45 -5
-27 0 -78 -3 -114 -6 -127 -11 -235 -5 -375 22 -113 21 -111 22 -113 -26 -1
-22 -4 -45 -7 -49 -3 -5 -1 -11 5 -15 6 -4 7 -11 4 -17 -3 -5 -8 -44 -9 -86
-2 -43 -6 -142 -10 -222 -4 -80 -8 -199 -9 -265 -1 -112 0 -120 19 -123 11 -3
22 -7 25 -11 3 -4 32 -18 64 -33 l59 -26 -39 -11 c-21 -6 -43 -11 -49 -11 -5
0 -27 -5 -48 -11 l-38 -10 6 -77 c3 -42 7 -102 10 -132 7 -86 15 -189 20 -265
3 -38 7 -97 10 -130 12 -143 17 -213 19 -260 4 -73 13 -92 44 -99 59 -14 112
-31 112 -36 0 -7 -122 -45 -133 -42 -5 2 -5 -3 0 -10 4 -7 8 -15 8 -18 1 -3
18 -59 39 -125 21 -66 40 -131 43 -144 2 -14 7 -29 11 -35 4 -6 7 -13 8 -16 2
-14 26 -97 31 -110 4 -8 7 -18 8 -22 2 -5 4 -11 5 -15 1 -5 2 -12 1 -16 -1 -4
6 -21 14 -37 9 -16 15 -32 15 -35 0 -3 0 -6 1 -7 1 -3 4 -17 13 -53 2 -11 11
-39 20 -63 8 -23 15 -44 16 -47 0 -3 1 -7 1 -10 1 -3 2 -11 3 -17 1 -9 19 -12
64 -10 34 2 62 0 62 -4 0 -4 -15 -26 -34 -48 -27 -34 -32 -45 -22 -57 13 -18
100 -119 136 -159 14 -15 44 -50 67 -76 22 -27 49 -58 60 -69 10 -11 44 -51
77 -88 l58 -68 43 36 c24 19 46 35 50 35 4 0 5 -25 2 -55 -3 -30 -2 -56 2 -57
17 -4 376 -19 496 -21 l100 -2 0 43 c0 23 2 42 3 42 8 0 41 -46 42 -57 0 -7 4
-13 8 -13 15 0 322 227 322 238 0 5 -4 12 -9 18 -5 5 -12 19 -16 32 -7 23 -7
23 24 7 17 -8 31 -14 32 -13 0 2 2 12 4 23 6 38 16 79 21 86 5 8 22 84 29 132
3 16 8 33 11 39 4 6 8 21 10 32 1 12 11 53 22 91 20 74 15 95 -23 95 -24 0
-17 19 10 26 14 3 25 9 25 13 0 4 -16 54 -36 112 -19 57 -37 109 -38 114 -2 6
-6 17 -9 25 -3 8 -12 35 -20 60 -9 25 -22 63 -30 85 -9 22 -18 52 -21 67 -5
22 -10 26 -32 22 -25 -5 -26 -3 -21 25 6 27 0 35 -61 89 -37 32 -78 67 -90 78
-13 10 -45 38 -70 61 -53 48 -57 50 -70 26 -9 -14 -10 -14 -16 5 -4 12 -10 22
-14 22 -4 -1 -74 -36 -157 -78 -132 -68 -150 -80 -147 -100 2 -12 0 -22 -5
-21 -20 3 -29 -2 -30 -19 -1 -10 -13 -66 -28 -126 -34 -145 -34 -161 5 -224
18 -29 31 -55 29 -57 -2 -2 -33 -6 -69 -10 -36 -4 -69 -9 -73 -12 -5 -3 13
-13 39 -23 27 -10 63 -23 79 -30 17 -8 32 -14 35 -15 3 -1 16 -6 30 -13 73
-32 354 -142 357 -138 6 6 -40 86 -49 86 -5 0 -7 4 -3 9 3 5 -1 15 -8 23 -7 7
-38 57 -69 110 l-56 98 25 37 c14 21 39 57 55 81 l30 44 16 -24 c9 -13 27 -34
39 -48 13 -14 23 -28 23 -32 0 -3 6 -13 13 -20 47 -49 110 -144 113 -171 1
-18 3 -32 4 -32 1 0 3 -22 5 -50 1 -27 6 -83 9 -124 5 -57 3 -76 -8 -85 -7 -6
-63 -49 -122 -96 -60 -46 -115 -90 -121 -96 -12 -12 -51 0 -115 36 -10 6 -22
10 -27 10 -6 0 -41 14 -78 31 -37 17 -81 37 -98 44 -83 36 -82 35 -124 134
-22 53 -50 119 -62 146 -13 28 -24 55 -25 60 -1 6 -14 37 -29 70 -15 33 -33
74 -40 90 -7 17 -27 63 -44 103 -31 73 -31 73 -26 210 9 232 15 402 20 527 2
66 5 120 5 120 1 0 3 56 5 125 4 114 7 130 31 175 15 28 33 53 38 57 6 4 7 8
3 8 -4 0 4 17 18 37 14 21 25 43 25 49 0 7 3 14 8 16 9 4 92 147 92 159 0 5 3
9 8 9 4 0 15 17 24 38 17 37 49 93 58 102 3 3 13 21 24 40 49 91 80 145 85
150 3 3 7 12 9 20 2 8 14 39 28 68 13 29 24 59 24 67 0 8 5 15 10 15 6 0 10 8
10 18 0 10 4 22 9 27 14 16 30 75 37 135 3 30 8 71 10 90 3 19 6 49 7 65 2 17
6 29 11 29 4 -1 34 -21 67 -45 66 -48 60 -34 125 -284 3 -11 6 -24 8 -30 2 -5
6 -23 11 -38 5 -19 12 -26 24 -23 9 3 27 7 41 9 14 3 45 8 70 12 25 5 54 9 65
11 11 1 20 3 20 4 0 1 11 3 25 6 14 2 61 14 105 25 96 25 91 24 138 34 20 4
40 11 43 16 3 5 9 7 14 4 5 -3 20 -1 34 5 26 10 62 18 101 25 11 2 21 4 23 5
1 2 5 3 10 4 4 1 22 6 40 10 36 9 47 24 55 76 3 19 21 100 40 180 20 80 38
156 41 170 4 25 34 150 82 350 15 58 28 114 30 125 2 11 7 31 10 45 3 14 7 32
8 40 1 8 5 24 9 35 3 11 8 31 11 45 3 14 21 93 41 175 42 176 40 169 61 263 9
39 20 72 26 72 5 0 7 -4 4 -9 -3 -5 -8 -26 -12 -47 -5 -35 -29 -191 -39 -254
-15 -95 -18 -117 -17 -132 0 -10 -2 -18 -6 -18 -4 0 -7 -12 -8 -27 -1 -27 -10
-94 -18 -138 -2 -11 -7 -45 -11 -75 -4 -30 -9 -64 -12 -75 -2 -11 -6 -33 -8
-50 -10 -74 -22 -151 -30 -195 -3 -14 -7 -43 -10 -65 -2 -22 -7 -51 -10 -64
-2 -14 -7 -45 -10 -70 -3 -25 -7 -57 -10 -71 -3 -14 -7 -43 -10 -65 -3 -22 -8
-53 -12 -70 -3 -16 -7 -41 -8 -55 -1 -14 -5 -38 -8 -55 -7 -34 -17 -99 -22
-135 -1 -14 -6 -47 -11 -75 -4 -27 -9 -58 -10 -67 -1 -10 -2 -19 -3 -20 -1 -2
-4 -16 -6 -33 -1 -16 -6 -50 -10 -75 -4 -25 -9 -58 -11 -75 -1 -16 -3 -30 -4
-30 -1 0 -4 -16 -7 -35 -2 -19 -11 -73 -19 -119 -7 -45 -11 -87 -8 -92 3 -5 1
-9 -4 -9 -5 0 -8 -11 -7 -25 2 -14 -1 -27 -6 -31 -5 -3 -7 -9 -4 -14 3 -4 1
-31 -5 -59 -5 -28 -12 -74 -15 -103 -4 -29 -8 -55 -10 -58 -1 -3 -6 -32 -10
-65 -3 -32 -9 -63 -11 -67 -3 -4 0 -8 5 -8 6 0 11 4 11 9 0 5 8 12 18 15 9 3
28 16 42 28 14 13 44 36 68 51 23 15 50 34 60 42 17 14 131 97 172 125 13 8
28 20 34 25 6 6 40 31 76 55 35 25 71 50 80 57 60 48 153 113 160 113 6 0 10
4 10 8 0 4 12 15 28 24 15 9 36 24 47 32 65 51 157 116 165 116 4 0 10 4 12 8
2 4 52 43 111 86 77 56 106 83 103 95 -3 9 -8 54 -11 101 -6 89 -11 158 -20
275 -3 39 -8 102 -10 140 -3 39 -7 95 -10 125 -9 105 -15 175 -20 255 -3 44
-8 103 -10 130 -22 262 -25 309 -14 298 5 -5 10 -28 12 -51 1 -23 5 -42 10
-42 4 0 6 -3 6 -7 -1 -5 -1 -10 1 -13 1 -3 3 -14 5 -25 3 -11 20 -87 40 -170
20 -82 38 -161 41 -175 3 -14 10 -43 16 -65 5 -22 12 -51 14 -65 3 -14 7 -31
10 -39 5 -15 44 -184 49 -216 3 -18 34 -146 52 -215 3 -14 7 -27 8 -30 0 -3 4
-22 9 -43 5 -25 12 -37 20 -34 7 3 61 43 120 89 60 45 116 88 125 93 9 6 18
12 21 15 3 3 23 18 45 35 22 16 45 33 50 37 6 5 28 22 50 39 22 16 47 35 55
42 8 7 40 30 70 52 30 22 64 48 74 57 11 10 38 30 60 45 23 15 43 30 46 33 3
3 34 28 70 55 36 27 67 53 68 57 2 4 8 8 14 8 5 0 16 6 23 13 26 22 40 33 68
51 l27 18 -53 61 c-28 34 -59 68 -67 77 -8 9 -35 40 -60 69 -25 29 -56 65 -70
81 -14 15 -46 51 -72 81 -111 130 -174 202 -200 231 -13 13 -50 55 -83 93 -33
38 -64 74 -70 80 -5 6 -21 24 -35 40 l-25 29 40 -29 c40 -30 56 -42 78 -60 7
-6 41 -33 77 -60 36 -27 70 -54 76 -60 6 -5 22 -17 34 -25 12 -8 30 -22 40
-30 10 -8 27 -22 37 -30 10 -8 59 -47 108 -85 50 -38 92 -72 95 -75 3 -3 34
-27 70 -54 79 -60 86 -66 111 -88 10 -10 23 -18 28 -18 5 0 11 -3 13 -8 4 -10
88 -75 92 -71 24 33 83 105 89 107 4 2 7 10 7 17 0 7 4 15 8 17 4 2 59 71 122
153 63 83 118 155 122 160 5 6 33 42 64 82 54 71 55 73 40 101 -8 16 -12 32
-9 36 4 3 1 6 -5 6 -6 0 -16 17 -23 38 -6 20 -24 64 -39 97 -39 86 -55 123
-122 280 -81 188 -81 189 -82 197 -1 4 -7 13 -13 20 -7 6 -13 17 -13 24 0 6
-12 38 -27 70 -14 33 -27 64 -29 69 -4 18 -31 65 -35 61 -2 -3 -22 -7 -44 -10
-23 -4 -52 -9 -65 -11 -14 -3 -43 -8 -65 -11 -22 -3 -60 -9 -85 -14 -25 -5
-63 -12 -85 -14 -69 -10 -109 -16 -155 -26 -25 -6 -61 -12 -80 -14 -19 -3 -62
-9 -95 -15 -188 -32 -248 -41 -251 -38 -3 3 192 67 601 199 50 16 97 31 105
34 8 3 16 5 17 5 2 0 19 7 38 15 20 8 40 12 45 9 6 -4 10 -2 10 3 0 9 47 27
63 24 4 -1 7 0 7 2 0 3 -50 155 -111 338 -61 183 -112 341 -114 351 -2 9 -7
23 -12 30 -4 6 -8 17 -9 22 -2 13 -45 139 -49 143 -1 1 -35 -16 -76 -40 -41
-23 -90 -50 -109 -60 -19 -11 -44 -25 -55 -31 -11 -7 -52 -30 -90 -51 -39 -22
-86 -48 -105 -59 -19 -11 -53 -30 -75 -42 -22 -12 -67 -37 -100 -55 -33 -18
-68 -40 -77 -48 -10 -8 -18 -12 -18 -8 0 4 -12 -1 -28 -11 -52 -34 -67 -43
-104 -59 -21 -9 -38 -20 -38 -25 0 -5 -5 -9 -10 -9 -6 0 -29 -12 -53 -26 l-42
-25 36 33 c20 18 44 40 55 48 35 27 119 94 130 105 6 5 22 17 34 25 12 8 28
20 34 25 6 6 52 43 101 83 50 39 97 78 106 87 9 8 21 15 27 15 5 0 12 4 14 9
3 8 48 45 267 219 19 15 41 33 48 41 16 15 30 7 -182 107 -66 31 -171 81 -233
110 -62 29 -113 53 -115 53 -1 -1 -42 20 -92 45 -49 25 -95 46 -102 46 -7 0
-13 5 -13 10 0 6 -7 10 -15 10 -8 0 -29 9 -47 20 -39 23 -37 23 -65 7z m-856
-2269 c-3 -8 -6 -5 -6 6 -1 11 2 17 5 13 3 -3 4 -12 1 -19z"/>
</g>
</svg>
