<svg xmlns="http://www.w3.org/2000/svg" xmlns:xlink="http://www.w3.org/1999/xlink" version="1.1" x="0px" y="0px" viewBox="0 0 100 125" enable-background="new 0 0 100 100" xml:space="preserve"><polygon stroke="#B4D670" stroke-width="0.025" points="58.979,10.729 67.89,5.127 78.66,10.244 67.406,19.222 80.078,12.119   83.744,23.16 71.907,27.024 84.345,24.961 89.347,36.538 83.521,44.135 72.107,35.227 81.461,45.931 69.065,55.321 65.306,39.329   66.678,57.142 51.684,67.999 57.203,32.026 52.201,53.434 45.631,55.121 42.394,55.711 41.297,51.582 39.597,50.332 39.174,53.683   37.705,57.146 32.614,66.009 32.104,78.953 35.532,87.012 40.373,89.089 43.774,86.422 43.463,82.587 40.897,79.219 39.496,81.254   41.974,85.422 34.869,82.565 36.972,82.354 36.025,80.735 36.858,77 37.303,76.904 37.192,76.432 41.069,74.482 41.28,75.028   41.598,74.586 45.092,77.646 44.957,78.38 45.562,78.303 47.644,84.369 46.907,84.731 47.686,85.12 46.231,91.059 45.431,90.734   45.849,91.748 41.907,94.646 41.229,93.56 41.154,94.873 33.676,94.525 33.777,92.935 32.538,94.006 27.421,88.138 28.376,86.832   26.771,86.969 23.757,77.091 25.625,76.479 23.541,75.928 22.624,64.021 24.791,63.508 22.606,62.426 23.003,53.918 23.061,52.335   25.625,52.8 27.892,52.967 31.627,52.633 27.971,52.359 25.766,52.028 23.133,51.142 16.471,45.918 12.537,40.897 10.653,36.061   14.237,39.596 19.054,42.938 24.525,44.796 30.193,23.723 37.305,16.397 38.858,13.073 49.006,8.514 " fill="#000000"/></svg>